<svg id="Capa_1" enable-background="new 0 0 511.978 511.978" height="512" viewBox="0 0 511.978 511.978" width="512" xmlns="http://www.w3.org/2000/svg"><g><g><path d="m495.853 198.893-183.301-183.302c-11.272-11.272-29.547-11.272-40.819 0-4.569 4.569-222.032 222.033-225.276 225.276-11.272 11.272-11.272 29.547 0 40.819l60.881 60.881c9.149 9.149 8.084 24.278-2.257 32.054l-86.325 64.923c-13.942 10.486-15.378 30.885-3.042 43.22l12.964 12.965c12.336 12.336 32.734 10.9 43.22-3.043l64.923-86.325c7.777-10.341 22.906-11.406 32.054-2.257l60.881 60.881c11.272 11.272 29.547 11.272 40.819 0l225.276-225.275c11.274-11.27 11.274-29.546.002-40.817z" fill="#ce775f"/><g><g fill="#c0694e"><path d="m67.137 302.366c-8.78-11.322-7.98-27.671 2.416-38.066 3.243-3.243 221.707-221.708 226.275-226.276 9.269-9.269 23.27-10.909 34.222-4.934l-17.498-17.498c-11.272-11.272-29.547-11.272-40.819 0-4.568 4.568-222.032 222.032-225.276 225.275-11.272 11.272-11.272 29.547 0 40.819z"/><path d="m41.852 462.977 86.325-64.923c10.341-7.777 11.406-22.906 2.257-32.054l-21.032-21.032c6.838 9.215 5.162 22.524-4.32 29.654l-86.325 64.923c-13.942 10.486-15.378 30.885-3.042 43.22l12.964 12.965c1.666 1.666 3.481 3.071 5.396 4.238-6.857-12.174-4.011-28.125 7.777-36.991z"/></g></g><circle cx="269.679" cy="241.766" fill="#f4dd45" r="161.678"/><path d="m230.014 356.089c-63.139-63.139-63.139-165.508 0-228.648 22.006-22.006 48.78-36.333 76.995-42.999-52.739-12.461-110.52 1.866-151.653 42.999-63.139 63.139-63.139 165.508 0 228.648 41.133 41.133 98.914 55.46 151.653 42.999-28.216-6.666-54.989-20.993-76.995-42.999z" fill="#fcc101"/><circle cx="269.679" cy="241.766" fill="#fcc101" r="126.098"/><path d="m238.442 119.587c-21.224 5.405-41.317 16.404-57.927 33.014-49.244 49.244-49.244 129.085 0 178.33 16.61 16.61 36.703 27.609 57.927 33.014-2.879-2.5-5.69-5.118-8.428-7.855-63.139-63.139-63.139-165.508 0-228.648 2.737-2.738 5.549-5.355 8.428-7.855z" fill="#efac08"/><g fill="#f87c68"><circle cx="350.432" cy="218.721" r="15.612"/><circle cx="292.724" cy="161.012" r="15.612"/><circle cx="248.624" cy="320.529" r="15.612"/><circle cx="212.626" cy="181.796" r="15.612"/><circle cx="328.722" cy="299.745" r="15.612"/><circle cx="190.916" cy="262.82" r="15.612"/></g><path d="m355.005 229.76c-6.097-6.097-6.097-15.981 0-22.078.987-.987 2.08-1.797 3.233-2.464-5.971-3.456-13.735-2.646-18.845 2.464-6.097 6.097-6.097 15.982 0 22.078 5.11 5.11 12.874 5.92 18.845 2.464-1.153-.667-2.246-1.477-3.233-2.464z" fill="#ec625e"/><path d="m297.296 172.051c-6.097-6.097-6.097-15.982 0-22.078.987-.987 2.08-1.797 3.233-2.464-5.971-3.456-13.735-2.646-18.845 2.464-6.097 6.097-6.097 15.981 0 22.078 5.11 5.11 12.874 5.92 18.845 2.464-1.153-.667-2.246-1.477-3.233-2.464z" fill="#ec625e"/><path d="m253.197 331.568c-6.097-6.097-6.097-15.982 0-22.078.987-.987 2.08-1.797 3.233-2.464-5.971-3.456-13.735-2.646-18.845 2.464-6.097 6.097-6.097 15.981 0 22.078 5.11 5.11 12.874 5.92 18.845 2.464-1.153-.667-2.246-1.477-3.233-2.464z" fill="#ec625e"/><path d="m213.158 185.836c-1.87-6.98 1.31-14.108 7.288-17.552-3.463-2.004-7.69-2.686-11.86-1.569-8.328 2.232-13.271 10.792-11.039 19.12s10.792 13.271 19.121 11.039c1.348-.361 2.596-.903 3.751-1.569-3.454-1.997-6.147-5.31-7.261-9.469z" fill="#ec625e"/><path d="m329.254 303.786c-1.87-6.98 1.31-14.108 7.288-17.552-3.463-2.004-7.69-2.686-11.86-1.569-8.328 2.232-13.271 10.792-11.039 19.12s10.792 13.271 19.12 11.039c1.348-.361 2.597-.903 3.751-1.569-3.453-1.997-6.146-5.311-7.26-9.469z" fill="#ec625e"/><path d="m195.488 273.859c-6.097-6.097-6.097-15.982 0-22.078.987-.987 2.08-1.797 3.233-2.464-5.971-3.456-13.735-2.646-18.845 2.464-6.097 6.097-6.097 15.982 0 22.078 5.11 5.11 12.874 5.92 18.845 2.464-1.153-.667-2.246-1.477-3.233-2.464z" fill="#ec625e"/></g><g><path d="m366.961 202.723c-9.012-9.01-23.674-9.01-32.686 0-9.011 9.012-9.011 23.674 0 32.686 4.506 4.505 10.425 6.758 16.343 6.758 20.526 0 30.862-24.923 16.343-39.444zm-10.607 22.079c-3.162 3.164-8.309 3.164-11.471 0-3.163-3.162-3.163-8.309 0-11.471 1.581-1.582 3.658-2.372 5.735-2.372s4.154.79 5.735 2.372c3.164 3.162 3.164 8.308.001 11.471z"/><path d="m309.251 177.7c4.366-4.365 6.771-10.17 6.771-16.343 0-20.512-24.934-30.861-39.455-16.343-9.011 9.012-9.011 23.674 0 32.686 9.011 9.01 23.673 9.011 32.684 0zm-22.077-22.078c5.036-5.039 13.848-1.541 13.848 5.735 0 2.166-.844 4.203-2.376 5.735h-.001c-3.162 3.164-8.309 3.164-11.471 0-3.163-3.162-3.163-8.308 0-11.47z"/><path d="m232.468 337.217c9.013 9.011 23.674 9.01 32.686 0 9.011-9.012 9.011-23.674 0-32.686-9.012-9.011-23.675-9.011-32.687 0-9.011 9.012-9.011 23.674.001 32.686zm10.606-22.079c1.582-1.582 3.659-2.372 5.737-2.372 7.204 0 10.832 8.748 5.735 13.843-3.162 3.165-8.31 3.163-11.472 0-3.163-3.162-3.163-8.308 0-11.471z"/><path d="m201.256 202.156c17.818 10.285 39.192-6.17 33.88-25.997-1.598-5.963-5.422-10.946-10.768-14.033-11.09-6.401-25.196-2.581-31.571 8.459-6.386 11.061-2.604 25.182 8.459 31.571zm4.531-24.071c2.234-3.866 7.18-5.221 11.081-2.969 1.876 1.084 3.218 2.833 3.779 4.926 1.872 6.989-5.678 12.714-11.892 9.124-3.874-2.239-5.213-7.189-2.968-11.081z"/><path d="m351.232 294.108c-1.598-5.963-5.422-10.946-10.768-14.033-17.809-10.279-39.186 6.197-33.88 25.998 1.598 5.963 5.422 10.946 10.768 14.033 3.562 2.056 7.514 3.106 11.519 3.106 15.286.001 26.268-14.522 22.361-29.104zm-26.38 13.008c-1.876-1.084-3.218-2.833-3.779-4.925-1.879-7.016 5.716-12.692 11.892-9.126 1.876 1.084 3.218 2.833 3.779 4.926v-.001c1.863 6.958-5.652 12.728-11.892 9.126z"/><path d="m174.759 279.509c9.013 9.011 23.674 9.01 32.686 0 9.011-9.012 9.011-23.674 0-32.685-9.032-9.034-23.651-9.035-32.686-.001-9.011 9.012-9.011 23.674 0 32.686zm10.608-22.08c3.17-3.17 8.3-3.172 11.471.001 3.163 3.162 3.163 8.309 0 11.471-3.162 3.164-8.309 3.164-11.471 0-3.164-3.162-3.164-8.308 0-11.472z"/><path d="m265.461 460.029c-8.331 8.328-21.884 8.33-30.213 0l-60.882-60.881c-5.897-5.898-14.056-8.95-22.371-8.359-8.32.586-15.968 4.745-20.98 11.411l-30.366 40.375c-2.489 3.311-1.824 8.012 1.486 10.502 3.309 2.488 8.012 1.824 10.502-1.486l30.366-40.375c2.4-3.191 6.062-5.184 10.045-5.464 3.988-.279 7.887 1.179 10.711 4.003l60.882 60.882c14.178 14.175 37.247 14.179 51.427 0l87.823-87.824c17.975-12.066 34.084-27.918 46.675-46.675l90.777-90.777c14.177-14.179 14.177-37.248 0-51.426l-80.914-80.914c-2.93-2.928-7.678-2.928-10.607 0-2.929 2.93-2.929 7.678 0 10.607l80.914 80.914c8.33 8.329 8.33 21.883 0 30.212l-60.012 60.012c43.645-133.798-84.44-255.616-213.514-213.513l60.013-60.012c8.328-8.33 21.882-8.33 30.212 0l77.638 77.639c2.93 2.927 7.678 2.929 10.607 0 2.929-2.93 2.929-7.678 0-10.607l-77.639-77.639c-14.178-14.178-37.248-14.176-51.426 0l-90.777 90.777c-18.019 12.095-34.115 27.964-46.675 46.675l-87.823 87.822c-14.21 14.212-14.214 37.213 0 51.427l60.882 60.882c2.823 2.823 4.282 6.727 4.002 10.71-.28 3.984-2.272 7.646-5.464 10.047l-86.324 64.923c-17.583 13.222-19.388 38.969-3.839 54.518l12.965 12.965c15.571 15.571 41.306 13.73 54.518-3.839l13.311-17.698c2.489-3.311 1.824-8.012-1.486-10.502-3.311-2.489-8.014-1.824-10.502 1.486l-13.311 17.698c-7.757 10.314-22.839 11.334-31.922 2.247l-12.965-12.965c-9.111-9.109-8.041-24.184 2.247-31.922l86.324-64.923c6.666-5.014 10.825-12.661 11.411-20.981.585-8.32-2.462-16.474-8.358-22.371l-60.882-60.882c-8.347-8.345-8.351-21.862.001-30.212l57.059-57.059c-42.53 130.39 80.884 256.775 213.514 213.513zm51.509-71.099-5.321-19.856c39.229-12.866 71.76-44.265 85.179-85.179l19.856 5.32c-15.165 47.531-52.704 84.716-99.714 99.715zm-150.687-32.628 14.569-14.569c32.272 28.908 75.402 39.64 116.302 31.195l5.321 19.86c-47.301 10.128-98.493-2.299-136.192-36.486zm-47.094-146.8 19.94 5.343c-8.343 40.316 2.027 83.763 31.117 116.279l-14.57 14.57c-34.121-37.621-46.636-88.793-36.487-136.192zm254.26-81.581-14.569 14.569c-24.517-21.962-55.841-33.977-89.014-33.977-9.277 0-18.408.948-27.288 2.781l-5.321-19.859c47.399-10.15 98.573 2.366 136.192 36.486zm47.092 146.799-19.859-5.321c8.444-40.898-2.274-84.015-31.195-116.302l14.569-14.569c34.256 37.781 46.593 88.991 36.485 136.192zm-140.069-22.003 101.833 27.286c-11.521 34.291-38.963 62.592-74.547 74.547zm12.793 105.697c-35.253 7.016-73.018-1.899-101.786-27.308l74.505-74.505zm-8.91-120.185 74.505-74.505c25.413 28.772 34.322 66.548 27.308 101.786zm-14.489-114.717c29.165 0 56.718 10.464 78.387 29.604l-74.505 74.505-27.281-101.815c7.622-1.516 15.451-2.294 23.399-2.294zm-10.607 107.993-101.761-27.267c5.638-16.819 15.135-32.617 28.506-45.988 13.148-13.149 28.843-22.825 45.969-28.579zm-3.883 14.488-74.503 74.503c-25.199-28.572-34.28-66.469-27.236-101.763zm-32.615-150.702 5.32 19.856c-19.644 6.443-37.642 17.453-52.685 32.496-15.301 15.302-26.102 33.423-32.413 52.707l-19.938-5.342c15.209-47.666 52.837-84.759 99.716-99.717z"/></g></g></svg>